<?xml version="1.0" encoding="UTF-8" standalone="no"?>
<!-- Created with Inkscape (http://www.inkscape.org/) -->
<svg
   xmlns:svg="http://www.w3.org/2000/svg"
   xmlns="http://www.w3.org/2000/svg"
   version="1.0"
   width="350"
   height="107.86885"
   id="svg2">
  <defs
     id="defs4" />
  <g
     transform="translate(1175,-894.49333)"
     id="layer1">
    <g
       transform="matrix(0.1147541,0,0,0.1147541,-1040.1639,887.33701)"
       id="g3266">
      <rect
         width="3050"
         height="940"
         x="-1175"
         y="62.362183"
         style="fill:#000000;fill-opacity:1;stroke:none;stroke-width:1;stroke-linecap:square;stroke-linejoin:miter;stroke-miterlimit:4;stroke-dasharray:none;stroke-opacity:1"
         id="rect3238" />
      <g
         transform="translate(-13.28125,3.796875)"
         id="g3240">
        <path
           d="M 2978.4375,75.53125 L 2211.1563,77.53125 L 2110.625,519.03125 L 2030.7813,535.59375 L 2093.875,180.28125 L 1904.875,228.09375 L 1899.125,244.59375 L 1887.7188,232.71875 L 1734.75,260.78125 L 1732.5313,279.0625 L 1722.2188,265.65625 L 1561.75,286.25 L 1559.875,305.0625 C 1554.7695,302.50974 1491.0004,289.73572 1436.0313,294.21875 C 1397.0818,297.3953 1348.8854,304.11704 1337.8438,310.0625 L 1210.25,308.125 L 1209.1875,323.0625 L 1191.5,306.1875 L 1064.1875,303.3125 L 1059.3125,360.375 C 1050.3106,330.5175 994.15166,279.44322 898.53125,276.1875 C 799.32648,272.82391 767.4975,309.21896 756.78125,320.0625 L 745.375,271.96875 L 578.0625,231.65625 L 578.40625,242.84375 C 503.70863,165.82907 398.04681,163.23223 349.5625,171.15625 L 350.75,192.9375 C 284.61108,121.87847 156.58521,97.77528 72.125,99.84375 L 121.84375,433.1875 L 146.40625,443.75 L 204.0625,803.625 C 267.30296,805.22528 299.41246,781.78654 321.40625,769.75 L 322.15625,785.21875 L 489.0625,798.125 L 498.3125,819.5 L 664.125,760.625 L 671.71875,792.78125 L 749.1875,781.46875 C 749.18749,781.46874 812.08869,821.15026 866.625,819.625 C 942.0734,817.48111 982.42685,776.16983 995.125,762.09375 L 1012.875,767.40625 L 1009.875,815.53125 C 1009.875,815.53124 1270.6057,814.70605 1293.5938,814.15625 C 1313.9344,813.66976 1502.8242,810.11482 1505.2188,805.625 L 1639,817.75 C 1639,817.74999 1653.2512,812.21065 1671.4688,807.65625 C 1689.6864,803.10184 1755.7188,793.96875 1755.7188,793.96875 L 1815.6563,784.8125 L 1812.6563,804.625 L 2038.625,797.25 L 1989.125,858.875 L 2705.1875,857.34375 L 2896.1875,251.59375 L 2661.1875,456.75 L 2978.4375,75.53125 z M 2295.4375,455.71875 L 2304.75,474.03125 L 2090.5938,735.1875 L 2104.2813,660.6875 L 2295.4375,455.71875 z "
           transform="translate(-1162,61.362183)"
           style="fill:#ffffff;fill-opacity:1;fill-rule:evenodd;stroke:none;stroke-width:1px;stroke-linecap:butt;stroke-linejoin:miter;stroke-opacity:1"
           id="path3177" />
        <path
           d="M 1917.7764,241.55271 L 2070.7476,202.90735 L 2007.1438,564.40256 L 2104.5623,541.05431 L 2054.6454,780.17252 L 1834.8498,785.00319 L 1917.7764,241.55271 z "
           transform="translate(-1162,61.362183)"
           style="fill:#000000;fill-rule:evenodd;stroke:#000000;stroke-width:1px;stroke-linecap:butt;stroke-linejoin:miter;stroke-opacity:1"
           id="path3215" />
        <path
           d="M 1049.0607,382.44728 L 1020.0767,685.97444 C 1022.4496,695.52968 975.79048,795.73105 863.48242,797.48243 C 753.62601,799.18946 699.50536,684.68522 694.40894,666.2492 L 747.14377,343.80192 C 775.19147,322.96649 826.07886,284.54315 908.89033,293.69801 C 1022.9299,306.30515 1043.4249,368.76038 1049.0607,382.44728 z "
           transform="translate(-1162,61.362183)"
           style="fill:#000000;fill-rule:evenodd;stroke:none;stroke-width:1px;stroke-linecap:butt;stroke-linejoin:miter;stroke-opacity:1"
           id="path3194" />
        <path
           d="M 1024.5048,392.51118 C 1022.8353,375.81557 970.20764,326.83161 902.93291,326.08946 C 832.39682,325.31133 707.69329,357.48882 699.64217,528.97764 C 691.59106,700.46645 812.76039,765.27795 858.65176,766.08307 C 904.54314,766.88818 964.12141,735.48882 981.02876,695.23323 C 997.93611,654.97764 1009.6102,519.31629 1009.6102,519.31629 L 850.19808,520.12141 L 850.19808,592.58147 L 936.34505,592.58147 C 936.34505,592.58147 935.13069,625.88255 875.55911,628.81151 C 823.19025,631.36904 798.34124,579.13813 800.28115,545.07987 C 803.37968,490.68026 833.6933,454.10224 896.49202,453.29713 C 946.63802,452.65423 970.15975,508.84984 970.15975,508.84984 L 1010.0128,505.22683 L 1024.5048,392.51118 z "
           transform="translate(-1162,61.362183)"
           style="fill:#ffff00;fill-rule:evenodd;stroke:none;stroke-width:1px;stroke-linecap:butt;stroke-linejoin:miter;stroke-opacity:1"
           id="path3192" />
        <path
           d="M 1081.1008,319.75507 L 1184.1441,323.74017 L 1221.7179,396.61057 L 1226.2723,324.87877 L 1353.7955,330.57177 L 1351.5183,793.98199 L 1229.6881,794.55129 L 1208.0547,756.40819 L 1201.2231,793.41269 L 1029.8638,796.82849 L 1081.1008,319.75507 z "
           transform="translate(-1162,61.362183)"
           style="fill:#000000;fill-rule:evenodd;stroke:#000000;stroke-width:1px;stroke-linecap:butt;stroke-linejoin:miter;stroke-opacity:1"
           id="path3198" />
        <path
           d="M 1058.8981,768.93279 L 1179.5897,770.07139 L 1190.9757,665.32019 L 1243.3513,766.65559 L 1328.7463,766.65559 L 1332.1621,353.34377 L 1251.3215,352.20517 L 1243.3513,503.63898 L 1170.4809,348.78937 L 1104.4421,344.23497 L 1058.8981,768.93279 z "
           transform="translate(-1162,61.362183)"
           style="fill:#ffff00;fill-rule:evenodd;stroke:none;stroke-width:1px;stroke-linecap:butt;stroke-linejoin:miter;stroke-opacity:1"
           id="path3196" />
        <path
           d="M 1193.1757 597.41217 A 146.53035 146.53035 0 1 1  900.11504,597.41217 A 146.53035 146.53035 0 1 1  1193.1757 597.41217 z"
           transform="matrix(1.0081951,0,0,1.0191841,-1171.785,48.693696)"
           style="fill:#000000;fill-opacity:1;stroke:none;stroke-width:1;stroke-linecap:square;stroke-linejoin:miter;stroke-miterlimit:4;stroke-dasharray:none;stroke-opacity:1"
           id="path3186" />
        <path
           d="M 1163.3865 594.19171 A 119.15655 119.15655 0 1 1  925.07343,594.19171 A 119.15655 119.15655 0 1 1  1163.3865 594.19171 z"
           transform="translate(-1160.3898,62.972407)"
           style="fill:#ff8800;fill-opacity:1;stroke:none;stroke-width:1;stroke-linecap:square;stroke-linejoin:miter;stroke-miterlimit:4;stroke-dasharray:none;stroke-opacity:1"
           id="path3188" />
        <path
           d="M 586.92652,254.43451 L 729.43131,281.80831 L 842.95208,743.53994 L 689.17572,768.90096 C 689.17572,768.90096 679.40993,701.26152 679.11182,696.84345 C 678.41413,686.5033 674.77546,674.53148 671.26198,666.45048 C 667.09573,676.91693 667.33993,688.99361 667.03514,699.66134 L 526.17137,692.80843 L 586.92652,254.43451 z "
           transform="translate(-1162,61.362183)"
           style="fill:#000000;fill-rule:evenodd;stroke:none;stroke-width:1px;stroke-linecap:butt;stroke-linejoin:miter;stroke-opacity:1"
           id="path3184" />
        <path
           d="M 609.15625,288.4375 L 557.90625,665.3125 L 643.3125,673.28125 L 650.125,599.84375 L 692.84375,600.40625 C 692.84375,600.40625 709.36139,730.21728 710.5,738.1875 C 711.6386,746.1577 810.68751,721.12502 810.6875,721.125 L 710.28295,308.9375 L 609.15625,288.4375 z M 665.44858,405.61052 L 680.875,511.03125 L 655.65256,510.46875 L 665.44858,405.61052 z "
           transform="translate(-1162,61.362183)"
           style="fill:#ffff00;fill-rule:evenodd;stroke:none;stroke-width:1px;stroke-linecap:butt;stroke-linejoin:miter;stroke-opacity:1"
           id="path3179" />
        <path
           d="M 364.35202,184.26166 C 480.98607,168.33914 642.03293,266.22976 639.89323,392.05617 C 638.04472,500.75887 585.00342,541.04083 561.32983,562.27688 L 670.06613,734.20549 L 512.93933,791.70479 L 493.01383,749.57659 L 489.02872,775.76439 L 338.73352,764.94769 L 364.35202,184.26166 z "
           transform="translate(-1162,61.362183)"
           style="fill:#000000;fill-rule:evenodd;stroke:none;stroke-width:1px;stroke-linecap:butt;stroke-linejoin:miter;stroke-opacity:1"
           id="path3170" />
        <path
           d="M 403.875,212.59375 C 399.09435,212.65912 394.61279,213.08668 390.53125,213.875 L 366.625,739.90625 L 464.5625,746.71875 L 474.21875,633.4375 L 524.3125,753.5625 L 626.8125,717.125 L 522.0625,549.75 C 522.06247,549.75002 599.14353,510.70593 606.875,422.8125 C 618.41931,291.03987 475.58475,211.61323 403.875,212.59375 z M 493,388.625 C 494.1386,388.0557 530.01638,401.72106 526.03125,438.15625 C 522.04615,474.59146 485.625,478.59375 485.625,478.59375 L 493,388.625 z "
           transform="translate(-1162,61.362183)"
           style="fill:#ffff00;fill-rule:evenodd;stroke:none;stroke-width:1px;stroke-linecap:butt;stroke-linejoin:miter;stroke-opacity:1"
           id="path3172" />
        <path
           d="M 115.96875,121.40625 C 109.52591,121.45288 103.1325,121.7384 96.78125,122.21875 L 142.3125,417.09375 L 165.09375,422.8125 L 222.03125,781.46875 C 408.61493,752.76356 502.31426,539.00032 446.59375,368.8125 C 394.1892,208.75265 246.97318,120.45816 115.96875,121.40625 z M 291.46875,451.25 C 297.90964,451.51442 306.84187,456.40617 311.4171,473.4796 C 315.22342,487.68368 304.94862,503.64682 300.59375,504.78125 L 291.46875,451.25 z "
           transform="translate(-1162,61.362183)"
           style="fill:#000000;fill-rule:evenodd;stroke:none;stroke-width:1px;stroke-linecap:butt;stroke-linejoin:miter;stroke-opacity:1"
           id="path3164" />
        <path
           d="M 132.0625,151.8125 L 167.375,395.46875 L 195.84375,397.75 L 248.21875,745.03125 C 329.2026,713.88358 467.00851,624.58434 421.28125,389.78125 C 388.24294,220.1341 201.5171,151.8125 132.0625,151.8125 z M 258.46875,405.71875 C 258.46874,405.71876 321.94524,406.55662 337.60865,452.966 C 365.58793,535.86631 283.5,549.1875 283.5,549.1875 L 258.46875,405.71875 z "
           transform="translate(-1162,61.362183)"
           style="fill:#ffff00;fill-rule:evenodd;stroke:none;stroke-width:1px;stroke-linecap:butt;stroke-linejoin:miter;stroke-opacity:1"
           id="path2188" />
        <path
           d="M 1074.0193,645.71887 L 1038.3474,617.99434 L 1002.0674,644.91822 L 1017.4118,602.42491 L 980.59456,576.24054 L 1025.7498,577.70276 L 1039.2754,534.59605 L 1051.8385,577.99306 L 1097.0151,577.53602 L 1059.6243,602.89463 L 1074.0193,645.71887 z "
           transform="matrix(1.2061316,0,0,1.2061316,-1370.4947,-60.287943)"
           style="fill:#ff0000;fill-opacity:1;stroke:none;stroke-width:1;stroke-linecap:square;stroke-linejoin:miter;stroke-miterlimit:4;stroke-dasharray:none;stroke-opacity:1"
           id="path3190" />
        <path
           d="M 1942.7348,268.92652 L 2038.5431,245.57827 L 1974.9393,601.4377 L 2069.9425,578.89457 L 2034.5176,749.57827 L 1868.6645,751.1885 L 1942.7348,268.92652 z "
           transform="translate(-1162,61.362183)"
           style="fill:#ff0000;fill-rule:evenodd;stroke:none;stroke-width:1px;stroke-linecap:butt;stroke-linejoin:miter;stroke-opacity:1"
           id="path3213" />
        <path
           d="M 1743.4813,280.75802 L 1883.2445,253.71626 L 1863.8883,521.85658 L 1970.9167,506.48548 L 1937.8973,715.41859 L 1709.608,746.16079 L 1743.4813,280.75802 z "
           transform="translate(-1162,61.362183)"
           style="fill:#000000;fill-rule:evenodd;stroke:#000000;stroke-width:1px;stroke-linecap:butt;stroke-linejoin:miter;stroke-opacity:1"
           id="path3219" />
        <path
           d="M 1939.0359,540.07418 L 1912.8481,687.52289 L 1742.0581,709.72559 L 1765.9687,307.23047 L 1852.5023,292.42867 L 1834.2847,555.44528 L 1939.0359,540.07418 z "
           transform="translate(-1162,61.362183)"
           style="fill:#ff0000;fill-rule:evenodd;stroke:none;stroke-width:1px;stroke-linecap:butt;stroke-linejoin:miter;stroke-opacity:1"
           id="path3217" />
        <path
           d="M 1504.9446,787.15039 L 1575.8225,303.24537 L 1725.2637,285.88172 L 1818.0596,763.23979 L 1664.3486,787.43504 L 1653.2472,687.80754 L 1637.5915,797.68244 L 1504.9446,787.15039 z "
           transform="translate(-1162,61.362183)"
           style="fill:#000000;fill-rule:evenodd;stroke:#000000;stroke-width:1px;stroke-linecap:butt;stroke-linejoin:miter;stroke-opacity:1"
           id="path3226" />
        <path
           d="M 1705.0625,319.1739 L 1600.0142,330.8648 L 1522.3125,756.40625 L 1616.8261,764.0795 L 1634.4688,624.34375 L 1673.75,625.46875 L 1687.1285,754.42325 L 1785.3125,741.03125 L 1705.0625,319.1739 z M 1653.8302,456.95515 L 1663.4973,545.47215 L 1643,545.1875 L 1653.8302,456.95515 z "
           transform="translate(-1162,61.362183)"
           style="fill:#ff0000;fill-rule:evenodd;stroke:none;stroke-width:1px;stroke-linecap:butt;stroke-linejoin:miter;stroke-opacity:1"
           id="path3221" />
        <path
           d="M 1349.2411,624.33058 C 1362.1958,661.38315 1364.0659,727.78201 1370.8745,783.73459 C 1385.457,788.94262 1423.021,792.78693 1444.6191,791.63572 C 1466.2517,790.48267 1594.6563,791.27436 1610.9119,696.02887 C 1621.2904,635.21858 1591.0729,601.15481 1577.6281,588.63142 C 1587.1986,580.01798 1637.4209,539.128 1632.5453,459.69335 C 1628.7568,398.28353 1589.1364,310.48008 1465.9071,312.75673 C 1377.3876,314.39955 1334.8419,328.15643 1334.8419,328.15643 L 1349.2411,624.33058 z "
           transform="translate(-1162,61.362183)"
           style="fill:#000000;fill-rule:evenodd;stroke:none;stroke-width:1px;stroke-linecap:butt;stroke-linejoin:miter;stroke-opacity:1"
           id="path3200" />
        <path
           d="M 1474.9688,345.8125 C 1423.8352,345.07852 1377.5505,351.03324 1355.8125,354.65625 L 1355.4063,499.1875 L 1369.9063,500.8125 L 1393.6563,758.4375 C 1428.3665,761.95053 1501.5245,758.96341 1528.9063,747.5625 C 1562.3583,733.6341 1584.5736,708.96772 1582.75,665.4375 C 1581.4923,635.41591 1562.9155,592.20318 1514.0148,580.90256 C 1567.6383,573.24208 1608.0924,511.8479 1600.5625,456.90625 C 1591.9476,393.64578 1559.103,347.02017 1474.9688,345.8125 z M 1447.5938,457.3125 C 1452.4245,458.11761 1488.591,457.33959 1488.25,490.75 C 1487.8475,530.20243 1449.5938,523.75003 1449.5938,523.75 L 1447.5938,457.3125 z M 1455.25,621.15625 C 1460.0807,621.96136 1487.055,620.77167 1487.0551,654.18381 C 1487.0552,674.31356 1456.8548,675.09006 1456.8548,675.09006 L 1455.25,621.15625 z "
           transform="translate(-1162,61.362183)"
           style="fill:#ff0000;fill-rule:evenodd;stroke:none;stroke-width:1px;stroke-linecap:butt;stroke-linejoin:miter;stroke-opacity:1"
           id="path3202" />
        <path
           d="M 2925.625,96.3125 L 2231.9375,97.4375 L 2116.6563,602.6875 L 2303.375,408.5625 L 2339.8125,468.34375 L 2035.25,835.53125 L 2684.6563,834.90625 L 2845.25,324.0625 L 2630.0625,519.1875 L 2612.5938,481.46875 L 2925.625,96.3125 z M 2389.5938,317.84375 L 2464.5625,318.0625 L 2422.8125,366.09375 L 2346.4063,365.84375 L 2389.5938,317.84375 z M 2543.625,567.6875 L 2575.5,568.25 L 2524.8438,614.9375 L 2500.375,614.09375 L 2543.625,567.6875 z "
           transform="translate(-1162,61.362183)"
           style="fill:#000000;fill-rule:evenodd;stroke:#000000;stroke-width:1px;stroke-linecap:butt;stroke-linejoin:miter;stroke-opacity:1"
           id="path3230" />
        <path
           d="M 2260.754,132.05751 L 2852.4623,129.78031 L 2572.1941,475.12444 L 2595.6805,530.53902 L 2527.1971,530.16507 L 2433.0479,645.14955 L 2538.2818,646.84907 L 2779.246,428.52563 L 2659.5202,798.39707 L 2110.8163,798.50312 L 2378.585,474.93747 L 2342.3061,402.85973 L 2437.9678,401.9081 L 2540.9329,281.80831 L 2373.2827,282.75993 L 2177.0224,489.52716 L 2260.754,132.05751 z "
           transform="translate(-1162,61.362183)"
           style="fill:#ff0000;fill-rule:evenodd;stroke:none;stroke-width:1px;stroke-linecap:butt;stroke-linejoin:miter;stroke-opacity:1"
           id="path3228" />
      </g>
    </g>
  </g>
</svg>
