


<svg width="15" height="14" viewBox="0 0 15 14" fill="none" xmlns="http://www.w3.org/2000/svg">
    <path d="M4.14306 1.5238L4.66191 0.668938L4.14306 0.35403L3.62422 0.668938L4.14306 1.5238ZM7.14307 3.34461L6.62422 4.19948L7.14307 4.51439L7.66192 4.19948L7.14307 3.34461ZM1.14307 3.34461L0.624217 2.48975L0.143066 2.78177V3.34461H1.14307ZM1.14307 7.24635H0.143066V7.70787L0.49427 8.00731L1.14307 7.24635ZM7.14307 12.362L6.49427 13.1229L7.14307 13.6761L7.79186 13.1229L7.14307 12.362ZM13.1431 7.24635L13.7919 8.00731L14.1431 7.70787V7.24635H13.1431ZM13.1431 3.34461H14.1431V2.78177L13.6619 2.48975L13.1431 3.34461ZM10.1431 1.5238L10.6619 0.668938L10.1431 0.35403L9.62422 0.668938L10.1431 1.5238ZM3.62422 2.37867L6.62422 4.19948L7.66192 2.48975L4.66191 0.668938L3.62422 2.37867ZM1.66192 4.19948L4.66191 2.37867L3.62422 0.668938L0.624217 2.48975L1.66192 4.19948ZM2.14307 7.24635V3.34461H0.143066V7.24635H2.14307ZM7.79186 11.601L1.79186 6.48538L0.49427 8.00731L6.49427 13.1229L7.79186 11.601ZM7.79186 13.1229L13.7919 8.00731L12.4943 6.48538L6.49427 11.601L7.79186 13.1229ZM14.1431 7.24635V3.34461H12.1431V7.24635H14.1431ZM13.6619 2.48975L10.6619 0.668938L9.62422 2.37867L12.6242 4.19948L13.6619 2.48975ZM9.62422 0.668938L6.62422 2.48975L7.66192 4.19948L10.6619 2.37867L9.62422 0.668938Z" fill="white"/>
</svg>
